# xmcd
#
# Track frame offsets:
#	150
#	20204
#	32763
#	48574
#	65248
#	78200
#	95486
#	111920
#	123709
#	138748
#	154704
#	169656
#	181266
#
# Disc length: 2625 seconds
#
# Revision: 1
# Processed by: cddbd v1.5.2PL0 Copyright (c) Steve Scherf et al.
# Submitted via: audiograbber 1.83.01
#
DISCID=b90a3f0d
DTITLE=Betontod - Antirockstars
DYEAR=2011
DGENRE=Rock
TTITLE0=Gloria
TTITLE1=Gasolin
TTITLE2=Nebel
TTITLE3=Auf eine gute Zeit
TTITLE4=Keine Popsongs!
TTITLE5=Wenn der Sturm beginnt
TTITLE6=Steh auf!
TTITLE7=König Alkohol
TTITLE8=Mit Vollgas durch die Hölle
TTITLE9=Blut
TTITLE10=Nie vergessen
TTITLE11=Am Ende
TTITLE12=20 Jahre
EXTD=
EXTT0=
EXTT1=
EXTT2=
EXTT3=
EXTT4=
EXTT5=
EXTT6=
EXTT7=
EXTT8=
EXTT9=
EXTT10=
EXTT11=
EXTT12=
PLAYORDER=
